<svg xmlns="http://www.w3.org/2000/svg" xmlns:xlink="http://www.w3.org/1999/xlink" width="500" zoomAndPan="magnify" viewBox="0 0 375 374.999991" height="500" preserveAspectRatio="xMidYMid meet" version="1.0"><path fill="#f9726e" d="M 186.253906 51.140625 C 187.757812 50.890625 189.3125 50.796875 190.765625 50.371094 C 203.527344 46.601562 216.582031 44.480469 229.855469 44.539062 C 258.574219 44.664062 285.105469 52.074219 308.738281 68.933594 C 321.203125 77.828125 332.019531 88.328125 340.8125 100.820312 C 350.5 114.582031 357.582031 129.640625 362.066406 145.894531 C 365.609375 158.71875 367.414062 171.804688 367.183594 185.085938 C 366.777344 208.480469 360.996094 230.542969 349.652344 251.03125 C 346.429688 256.851562 342.632812 262.371094 338.855469 267.855469 C 337.695312 269.539062 337.363281 270.828125 338.042969 272.75 C 342.28125 284.730469 346.40625 296.753906 350.570312 308.761719 C 351.203125 310.582031 351.867188 312.390625 352.449219 314.226562 C 354.167969 319.640625 349.679688 325.257812 343.648438 323.382812 C 338.75 321.859375 333.886719 320.214844 329.027344 318.570312 C 318.453125 314.992188 307.878906 311.417969 297.335938 307.746094 C 294.984375 306.929688 292.96875 307.046875 290.734375 308.222656 C 277.78125 315.058594 263.984375 319.425781 249.496094 321.382812 C 236.859375 323.085938 224.175781 323.367188 211.308594 320.714844 C 212.472656 319.472656 213.796875 318.488281 215.265625 317.847656 C 225.714844 313.296875 234.382812 306.179688 242.777344 298.710938 C 249.007812 293.171875 254.28125 286.722656 259.070312 279.929688 C 261.082031 277.074219 263.75 274.425781 264.078125 270.628906 C 264.117188 270.664062 264.105469 270.761719 264.363281 270.753906 C 264.976562 270.433594 265.335938 270.125 265.863281 269.617188 C 280.199219 262.429688 292.207031 252.8125 301.457031 239.9375 C 317.246094 217.953125 323.558594 193.664062 318.796875 166.804688 C 315.917969 150.546875 309.050781 136.046875 298.804688 123.167969 C 289.023438 110.871094 276.71875 101.792969 262.257812 95.707031 C 257.414062 93.667969 252.355469 92.179688 246.777344 91.800781 C 243.148438 91.101562 239.796875 90.175781 236.398438 89.957031 C 221.277344 88.980469 206.960938 92.363281 193.25 98.542969 C 191.46875 99.34375 190.015625 100.878906 188.15625 102.097656 C 186.042969 103.253906 184.074219 104.234375 182.347656 105.535156 C 168.382812 116.078125 157.132812 128.8125 150.132812 145.074219 C 143.128906 161.347656 139.929688 178.21875 142.640625 195.796875 C 146.011719 217.628906 155.496094 236.511719 171.503906 251.953125 C 172.871094 253.273438 174.078125 254.753906 175.09375 256.203125 C 164.761719 261.21875 153.976562 263.050781 142.902344 263.003906 C 138.109375 262.984375 133.304688 261.910156 128.527344 261.175781 C 124.886719 260.613281 121.28125 259.832031 117.433594 259.023438 C 112.203125 251.839844 108.558594 244.058594 105.363281 236.074219 C 99.257812 220.820312 95.777344 204.988281 95.28125 188.527344 C 94.917969 176.539062 96.097656 164.699219 98.523438 152.972656 C 100.953125 141.21875 105.03125 130.019531 110.347656 119.304688 C 115.210938 109.507812 121.398438 100.515625 128.308594 91.765625 C 132.980469 87.273438 137.417969 82.859375 141.933594 78.535156 C 147.878906 72.84375 154.652344 68.265625 161.621094 63.9375 C 168.390625 59.734375 175.640625 56.546875 183.007812 53.582031 C 184.222656 53.09375 185.179688 51.972656 186.253906 51.140625 Z M 186.253906 51.140625 " fill-opacity="1" fill-rule="nonzero"/><path fill="#30b8c8" d="M 189.234375 315.605469 C 187.492188 315.945312 185.695312 316.128906 184.007812 316.652344 C 160.910156 323.816406 137.601562 324.542969 114.066406 319.054688 C 103.640625 316.621094 93.625 313.074219 84.191406 307.984375 C 82.488281 307.066406 80.972656 306.917969 79.089844 307.566406 C 65.984375 312.082031 52.84375 316.488281 39.710938 320.914062 C 37.28125 321.734375 34.851562 322.582031 32.378906 323.25 C 26.101562 324.957031 21.53125 320.671875 22.960938 314.351562 C 23.496094 311.988281 24.484375 309.722656 25.289062 307.421875 C 29.148438 296.398438 32.976562 285.359375 36.90625 274.359375 C 37.800781 271.863281 37.695312 269.878906 36.039062 267.589844 C 25.648438 253.210938 17.792969 237.578125 13.109375 220.398438 C 8.597656 203.867188 7.1875 187.117188 8.773438 170.050781 C 10.585938 150.582031 16.304688 132.328125 25.648438 115.238281 C 43.15625 83.214844 69.542969 61.761719 104.144531 50.46875 C 114.914062 46.953125 126.078125 45.054688 137.453125 44.84375 C 142.960938 44.746094 148.472656 44.882812 154.171875 45.183594 C 154.195312 45.644531 154.015625 45.824219 153.875 46.035156 C 153.84375 46.078125 153.949219 46.300781 153.996094 46.304688 C 155.515625 46.363281 157.039062 46.34375 158.546875 46.484375 C 159.316406 46.554688 160.054688 46.921875 160.808594 47.152344 L 161.425781 48.273438 C 160.828125 48.507812 160.203125 48.691406 159.628906 48.980469 C 152.1875 52.710938 145.367188 57.421875 138.828125 62.523438 C 134.929688 65.566406 130.902344 68.453125 127.945312 72.613281 C 125.371094 76.234375 122.441406 79.648438 119.351562 82.84375 C 115.617188 86.707031 113.296875 91.269531 111.382812 96.402344 C 105.75 99.675781 100.03125 102.394531 94.898438 105.957031 C 83.121094 114.128906 74.015625 124.757812 67.0625 137.335938 C 57.179688 155.210938 53.097656 174.324219 55.625 194.46875 C 58.640625 218.5 69.195312 238.898438 87.585938 254.988281 C 97.988281 264.089844 109.765625 270.640625 123.160156 274.160156 C 125.121094 274.675781 127.171875 274.84375 129.449219 275.320312 C 133.863281 277.304688 138.289062 276.75 142.617188 276.925781 C 156.921875 277.511719 170.300781 274 182.957031 267.523438 C 184.472656 266.75 185.660156 265.335938 187.296875 264.199219 C 189.472656 263.105469 191.464844 262.1875 193.210938 260.925781 C 200.101562 255.945312 206.320312 250.257812 211.640625 243.570312 C 228.605469 222.246094 236.160156 198.183594 232.582031 171.019531 C 229.851562 150.28125 221.007812 132.355469 206.585938 117.191406 C 205.714844 116.273438 204.960938 115.246094 204.257812 114.167969 C 204.183594 113.929688 204.007812 113.785156 203.882812 113.640625 C 203.929688 113.636719 203.894531 113.726562 203.941406 113.421875 C 204.070312 110.269531 205.953125 108.410156 208.246094 107.78125 C 213.609375 106.316406 219.085938 105.050781 224.601562 104.386719 C 229.132812 103.839844 233.785156 104.214844 238.382812 104.3125 C 239.886719 104.339844 241.421875 104.621094 242.867188 105.046875 C 247.371094 106.375 251.835938 107.851562 256.335938 109.214844 C 257.164062 109.46875 258.070312 109.457031 258.914062 109.609375 C 258.886719 109.652344 258.800781 109.597656 258.894531 109.800781 C 259.214844 110.191406 259.445312 110.382812 259.878906 110.71875 C 277.328125 140.5625 283.59375 172.355469 278.183594 206.320312 C 274.371094 230.25 264.726562 251.632812 249.605469 270.5625 C 248.257812 272.25 247.027344 274.039062 245.542969 275.925781 C 244.160156 277.175781 242.789062 278.433594 241.421875 279.703125 C 235.988281 284.726562 230.828125 290.09375 225.066406 294.707031 C 215.234375 302.566406 204.214844 308.503906 192.527344 313.199219 C 191.304688 313.691406 190.328125 314.789062 189.234375 315.605469 Z M 189.234375 315.605469 " fill-opacity="1" fill-rule="nonzero"/><path fill="#dd625e" d="M 189.46875 315.773438 C 190.328125 314.789062 191.304688 313.691406 192.527344 313.199219 C 204.214844 308.503906 215.234375 302.566406 225.066406 294.707031 C 230.828125 290.09375 235.988281 284.726562 241.421875 279.703125 C 242.730469 278.492188 244.039062 277.285156 245.867188 275.875 C 250.09375 274.675781 253.816406 273.714844 257.511719 272.667969 C 259.707031 272.046875 261.867188 271.292969 264.039062 270.597656 C 263.75 274.425781 261.082031 277.074219 259.070312 279.929688 C 254.28125 286.722656 249.011719 293.171875 242.777344 298.710938 C 234.382812 306.179688 225.714844 313.296875 215.265625 317.847656 C 213.796875 318.488281 212.472656 319.472656 211.042969 320.558594 C 203.589844 320.558594 196.582031 318.539062 189.46875 315.773438 Z M 189.46875 315.773438 " fill-opacity="1" fill-rule="nonzero"/><path fill="#2b9cad" d="M 111.5625 96.234375 C 113.296875 91.269531 115.617188 86.707031 119.351562 82.84375 C 122.441406 79.648438 125.371094 76.234375 127.945312 72.613281 C 130.902344 68.453125 134.929688 65.566406 138.828125 62.523438 C 145.367188 57.421875 152.1875 52.710938 159.628906 48.980469 C 160.203125 48.691406 160.828125 48.507812 161.425781 48.273438 L 160.808594 47.152344 C 160.054688 46.921875 159.316406 46.554688 158.546875 46.484375 C 157.039062 46.34375 155.515625 46.363281 153.996094 46.304688 C 153.949219 46.300781 153.84375 46.078125 153.875 46.035156 C 154.015625 45.824219 154.195312 45.644531 154.5 45.285156 C 158.710938 45.667969 162.90625 46.175781 167.085938 46.8125 C 170.730469 47.367188 174.378906 47.941406 177.980469 48.722656 C 180.597656 49.289062 183.140625 50.199219 185.984375 51.050781 C 185.179688 51.972656 184.222656 53.09375 183.007812 53.582031 C 175.636719 56.546875 168.390625 59.734375 161.621094 63.9375 C 154.652344 68.265625 147.878906 72.84375 141.933594 78.535156 C 137.417969 82.859375 132.980469 87.273438 127.957031 91.703125 C 122.121094 93.25 116.839844 94.742188 111.5625 96.234375 Z M 111.5625 96.234375 " fill-opacity="1" fill-rule="nonzero"/><path fill="#2c9cad" d="M 246.777344 91.800781 C 250.960938 97.542969 255.015625 103.375 258.941406 109.292969 C 258.070312 109.457031 257.164062 109.46875 256.335938 109.214844 C 251.835938 107.851562 247.371094 106.375 242.867188 105.046875 C 241.421875 104.621094 239.886719 104.339844 238.382812 104.3125 C 233.785156 104.214844 229.132812 103.839844 224.601562 104.386719 C 219.085938 105.050781 213.613281 106.316406 208.246094 107.78125 C 205.953125 108.410156 204.070312 110.269531 203.941406 113.421875 C 202.601562 112.765625 201.304688 111.808594 200.019531 110.839844 C 196.285156 108.03125 192.558594 105.21875 188.621094 102.238281 C 190.015625 100.878906 191.46875 99.34375 193.25 98.542969 C 206.960938 92.363281 221.277344 88.980469 236.402344 89.957031 C 239.796875 90.175781 243.148438 91.101562 246.777344 91.800781 Z M 246.777344 91.800781 " fill-opacity="1" fill-rule="nonzero"/><path fill="#de635f" d="M 129.449219 275.320312 C 125.425781 270.101562 121.507812 264.804688 117.695312 259.429688 C 121.28125 259.832031 124.886719 260.613281 128.527344 261.175781 C 133.304688 261.910156 138.109375 262.984375 142.90625 263.003906 C 153.976562 263.050781 164.761719 261.21875 175.09375 256.203125 C 176.980469 257.316406 178.589844 258.488281 180.226562 259.625 C 182.320312 261.074219 184.433594 262.496094 186.769531 264.074219 C 185.660156 265.335938 184.472656 266.75 182.953125 267.523438 C 170.300781 274 156.917969 277.507812 142.617188 276.925781 C 138.289062 276.75 133.863281 277.308594 129.449219 275.320312 Z M 129.449219 275.320312 " fill-opacity="1" fill-rule="nonzero"/><path fill="#dd625e" d="M 264.363281 270.753906 C 264.46875 270.46875 264.832031 270.175781 265.445312 269.847656 C 265.335938 270.125 264.976562 270.433594 264.363281 270.753906 Z M 264.363281 270.753906 " fill-opacity="1" fill-rule="nonzero"/></svg>